<svg width="1440" height="900" viewBox="0 0 1440 900" fill="none" xmlns="http://www.w3.org/2000/svg">
<g opacity="0.08" clip-path="url(#clip0_1701_35629)">
<line x1="14.5" y1="-62" x2="14.5" y2="962" stroke="black"/>
<line x1="41.5" y1="-62" x2="41.5" y2="962" stroke="black"/>
<line x1="68.5" y1="-62" x2="68.5" y2="962" stroke="black"/>
<line x1="95.5" y1="-62" x2="95.5" y2="962" stroke="black"/>
<line x1="122.5" y1="-62" x2="122.5" y2="962" stroke="black"/>
<line x1="149.5" y1="-62" x2="149.5" y2="962" stroke="black"/>
<line x1="176.5" y1="-62" x2="176.5" y2="962" stroke="black"/>
<line x1="203.5" y1="-62" x2="203.5" y2="962" stroke="black"/>
<line x1="230.5" y1="-62" x2="230.5" y2="962" stroke="black"/>
<line x1="257.5" y1="-62" x2="257.5" y2="962" stroke="black"/>
<line x1="284.5" y1="-62" x2="284.5" y2="962" stroke="black"/>
<line x1="311.5" y1="-62" x2="311.5" y2="962" stroke="black"/>
<line x1="338.5" y1="-62" x2="338.5" y2="962" stroke="black"/>
<line x1="365.5" y1="-62" x2="365.5" y2="962" stroke="black"/>
<line x1="392.5" y1="-62" x2="392.5" y2="962" stroke="black"/>
<line x1="419.5" y1="-62" x2="419.5" y2="962" stroke="black"/>
<line x1="446.5" y1="-62" x2="446.5" y2="962" stroke="black"/>
<line x1="473.5" y1="-62" x2="473.5" y2="962" stroke="black"/>
<line x1="500.5" y1="-62" x2="500.5" y2="962" stroke="black"/>
<line x1="527.5" y1="-62" x2="527.5" y2="962" stroke="black"/>
<line x1="554.5" y1="-62" x2="554.5" y2="962" stroke="black"/>
<line x1="581.5" y1="-62" x2="581.5" y2="962" stroke="black"/>
<line x1="608.5" y1="-62" x2="608.5" y2="962" stroke="black"/>
<line x1="635.502" y1="-62" x2="635.502" y2="962" stroke="black"/>
<line x1="662.502" y1="-62" x2="662.502" y2="962" stroke="black"/>
<line x1="689.502" y1="-62" x2="689.502" y2="962" stroke="black"/>
<line x1="716.502" y1="-62" x2="716.502" y2="962" stroke="black"/>
<line x1="743.502" y1="-62" x2="743.502" y2="962" stroke="black"/>
<line x1="770.502" y1="-62" x2="770.502" y2="962" stroke="black"/>
<line x1="797.502" y1="-62" x2="797.502" y2="962" stroke="black"/>
<line x1="824.502" y1="-62" x2="824.502" y2="962" stroke="black"/>
<line x1="851.502" y1="-62" x2="851.502" y2="962" stroke="black"/>
<line x1="878.502" y1="-62" x2="878.502" y2="962" stroke="black"/>
<line x1="905.502" y1="-62" x2="905.502" y2="962" stroke="black"/>
<line x1="932.502" y1="-62" x2="932.502" y2="962" stroke="black"/>
<line x1="959.502" y1="-62" x2="959.502" y2="962" stroke="black"/>
<line x1="986.502" y1="-62" x2="986.502" y2="962" stroke="black"/>
<line x1="1013.5" y1="-62" x2="1013.5" y2="962" stroke="black"/>
<line x1="1040.5" y1="-62" x2="1040.5" y2="962" stroke="black"/>
<line x1="1067.5" y1="-62" x2="1067.5" y2="962" stroke="black"/>
<line x1="1094.5" y1="-62" x2="1094.5" y2="962" stroke="black"/>
<line x1="1121.5" y1="-62" x2="1121.5" y2="962" stroke="black"/>
<line x1="1148.5" y1="-62" x2="1148.5" y2="962" stroke="black"/>
<line x1="1175.5" y1="-62" x2="1175.5" y2="962" stroke="black"/>
<line x1="1202.5" y1="-62" x2="1202.5" y2="962" stroke="black"/>
<line x1="1229.5" y1="-62" x2="1229.5" y2="962" stroke="black"/>
<line x1="1256.5" y1="-62" x2="1256.5" y2="962" stroke="black"/>
<line x1="1283.5" y1="-62" x2="1283.5" y2="962" stroke="black"/>
<line x1="1310.5" y1="-62" x2="1310.5" y2="962" stroke="black"/>
<line x1="1337.5" y1="-62" x2="1337.5" y2="962" stroke="black"/>
<line x1="1364.5" y1="-62" x2="1364.5" y2="962" stroke="black"/>
<line x1="1391.5" y1="-62" x2="1391.5" y2="962" stroke="black"/>
<line x1="1418.5" y1="-62" x2="1418.5" y2="962" stroke="black"/>
<line y1="26.166" x2="1440" y2="26.166" stroke="black"/>
<line y1="53.166" x2="1440" y2="53.166" stroke="black"/>
<line y1="80.166" x2="1440" y2="80.166" stroke="black"/>
<line y1="107.166" x2="1440" y2="107.166" stroke="black"/>
<line y1="134.166" x2="1440" y2="134.166" stroke="black"/>
<line y1="161.166" x2="1440" y2="161.166" stroke="black"/>
<line y1="188.166" x2="1440" y2="188.166" stroke="black"/>
<line y1="215.166" x2="1440" y2="215.166" stroke="black"/>
<line y1="242.166" x2="1440" y2="242.166" stroke="black"/>
<line y1="269.166" x2="1440" y2="269.166" stroke="black"/>
<line y1="296.166" x2="1440" y2="296.166" stroke="black"/>
<line y1="323.166" x2="1440" y2="323.166" stroke="black"/>
<line y1="350.166" x2="1440" y2="350.166" stroke="black"/>
<line y1="377.166" x2="1440" y2="377.166" stroke="black"/>
<line y1="404.166" x2="1440" y2="404.166" stroke="black"/>
<line y1="431.166" x2="1440" y2="431.166" stroke="black"/>
<line y1="458.166" x2="1440" y2="458.166" stroke="black"/>
<line y1="485.166" x2="1440" y2="485.166" stroke="black"/>
<line y1="512.166" x2="1440" y2="512.166" stroke="black"/>
<line y1="539.166" x2="1440" y2="539.166" stroke="black"/>
<line y1="566.166" x2="1440" y2="566.166" stroke="black"/>
<line y1="593.166" x2="1440" y2="593.166" stroke="black"/>
<line y1="620.166" x2="1440" y2="620.166" stroke="black"/>
<line y1="647.166" x2="1440" y2="647.166" stroke="black"/>
<line y1="674.166" x2="1440" y2="674.166" stroke="black"/>
<line y1="701.166" x2="1440" y2="701.166" stroke="black"/>
<line y1="728.166" x2="1440" y2="728.166" stroke="black"/>
<line y1="755.166" x2="1440" y2="755.166" stroke="black"/>
<line y1="782.166" x2="1440" y2="782.166" stroke="black"/>
<line y1="809.166" x2="1440" y2="809.166" stroke="black"/>
<line y1="836.166" x2="1440" y2="836.166" stroke="black"/>
<line y1="863.166" x2="1440" y2="863.166" stroke="black"/>
<line y1="890.166" x2="1440" y2="890.166" stroke="black"/>
</g>
<defs>
<clipPath id="clip0_1701_35629">
<rect width="1440" height="900" fill="white"/>
</clipPath>
</defs>
</svg>
